
<svg xmlns="http://www.w3.org/2000/svg" xmlns:xlink="http://www.w3.org/1999/xlink" width="24" height="24" viewBox="0 0 24 24" version="1.1">
<g id="surface1">
<path style="fill:none;stroke-width:20;stroke-linecap:butt;stroke-linejoin:miter;stroke:rgb(80.000001%,80.000001%,80.000001%);stroke-opacity:1;stroke-miterlimit:4;" d="M 239.990234 125 C 239.990234 188.517253 188.517253 239.990234 125 239.990234 C 61.482747 239.990234 10.009766 188.517253 10.009766 125 C 10.009766 61.482747 61.482747 10.009766 125 10.009766 C 188.517253 10.009766 239.990234 61.482747 239.990234 125 Z M 239.990234 125 " transform="matrix(0.096,0,0,0.096,0,0)"/>
<path style="fill:none;stroke-width:20;stroke-linecap:round;stroke-linejoin:miter;stroke:rgb(100%,0%,0%);stroke-opacity:1;stroke-dasharray:614.181335,108.384949;stroke-miterlimit:4;" d="M 239.990234 125 C 239.990234 188.517253 188.517253 239.990234 125 239.990234 C 61.482747 239.990234 10.009766 188.517253 10.009766 125 C 10.009766 61.482747 61.482747 10.009766 125 10.009766 C 188.517253 10.009766 239.990234 61.482747 239.990234 125 Z M 239.990234 125 " transform="matrix(-0.000000000000000018,-0.096,0.096,-0.000000000000000018,0.000000000000002728,24)"/>
</g>
</svg>
