<?xml version="1.0" encoding="UTF-8" standalone="no"?>
<!-- Created with Inkscape (http://www.inkscape.org/) -->

<svg
   width="22"
   height="22"
   viewBox="0 0 5.8208334 5.8208334"
   version="1.1"
   id="svg5"
   inkscape:version="1.1.2 (0a00cf5339, 2022-02-04)"
   sodipodi:docname="tomate-00.svg"
   xmlns:inkscape="http://www.inkscape.org/namespaces/inkscape"
   xmlns:sodipodi="http://sodipodi.sourceforge.net/DTD/sodipodi-0.dtd"
   xmlns="http://www.w3.org/2000/svg"
   xmlns:svg="http://www.w3.org/2000/svg">
  <sodipodi:namedview
     id="namedview7"
     pagecolor="#ffffff"
     bordercolor="#666666"
     borderopacity="1.0"
     inkscape:pageshadow="2"
     inkscape:pageopacity="0.0"
     inkscape:pagecheckerboard="0"
     inkscape:document-units="mm"
     showgrid="false"
     inkscape:zoom="34.590616"
     inkscape:cx="11.029003"
     inkscape:cy="10.812181"
     inkscape:window-width="1920"
     inkscape:window-height="1052"
     inkscape:window-x="1080"
     inkscape:window-y="28"
     inkscape:window-maximized="1"
     inkscape:current-layer="layer1"
     width="22px"
     units="px" />
  <defs
     id="defs2" />
  <g
     inkscape:label="Layer 1"
     inkscape:groupmode="layer"
     id="layer1">
    <circle
       style="fill:#a02c2c;stroke:none;stroke-width:0.0251266"
       id="path846"
       cx="2.9104166"
       cy="2.9104166"
       r="2.573287" />
    <path
       id="path57234"
       style="fill:#ffaaaa;stroke:none;stroke-width:0.0949667"
       transform="scale(0.26458333)"
       d="M 10.826172,1.2792969 V 10.847656 L 13.802734,1.6875 A 9.7258092,9.7258092 0 0 0 11,1.2734375 a 9.7258092,9.7258092 0 0 0 -0.173828,0.00586 z m 0,0 A 9.7258092,9.7258092 0 0 0 7.7695312,1.8339844 l 2.9921878,9.2109376 0.06445,-0.197266 z m 0,9.5683591 v 0.109375 L 16.582031,3.0351562 A 9.7258092,9.7258092 0 0 0 13.802734,1.6875 Z m 0,0 -0.06445,0.197266 0.06445,-0.08789 z m 0,0.109375 V 11 l 7.980469,-5.7988281 a 9.7258092,9.7258092 0 0 0 -2.22461,-2.1660157 z m 0,0 -0.06445,0.08789 L 10.826172,11 Z m 0,0.04297 v 0.02539 l 9.414062,-3.0585941 a 9.7258092,9.7258092 0 0 0 -1.433593,-2.765625 z m 0,0 -0.06445,0.04492 v 0.002 h 0.002 l 0.0625,-0.02148 z m 0,0.02539 v 0.02148 h 9.898437 A 9.7258092,9.7258092 0 0 0 20.726562,11 9.7258092,9.7258092 0 0 0 20.240234,7.9667969 Z m 0,0 -0.0625,0.02148 h 0.0625 z m 0,0.02148 v 0.02148 l 9.378906,3.046875 a 9.7258092,9.7258092 0 0 0 0.519531,-3.068359 z m 0,0 h -0.0625 l 0.002,0.002 0.06055,0.01953 z m 0,0.02148 v 0.02344 l 7.93164,5.763672 a 9.7258092,9.7258092 0 0 0 1.447266,-2.740235 z m 0,0 -0.06055,-0.01953 0.06055,0.04297 z m 0,0.02344 v 0.04297 l 5.708984,7.857422 a 9.7258092,9.7258092 0 0 0 2.222656,-2.136719 z m 0,0 -0.06055,-0.04297 0.06055,0.08594 z m 0,0.04297 v 0.109375 l 2.947266,9.074218 a 9.7258092,9.7258092 0 0 0 2.761718,-1.326171 z m 0,0 -0.06055,-0.08594 -0.002,-0.002 h -0.002 l 0.06445,0.197266 z m 0,0.109375 v 9.476562 A 9.7258092,9.7258092 0 0 0 11,20.726562 9.7258092,9.7258092 0 0 0 13.773438,20.318359 Z m 0,0 -0.06445,-0.197266 -2.9667971,9.128906 a 9.7258092,9.7258092 0 0 0 3.0312501,0.544922 z m -3.0312501,8.93164 2.9667971,-9.128906 h -0.002 l -5.6054691,7.716797 a 9.7258092,9.7258092 0 0 0 2.640625,1.412109 z M 5.1542969,18.763667 10.759766,11.04687 3.0761719,16.630854 a 9.7258092,9.7258092 0 0 0 2.078125,2.132813 z M 3.0761719,16.630854 10.759766,11.04687 1.7460938,13.976557 a 9.7258092,9.7258092 0 0 0 1.3300781,2.654297 z M 1.7148438,8.1074219 10.759766,11.046875 h 0.002 v -0.002 h -0.002 L 3.0332031,5.4296875 A 9.7258092,9.7258092 0 0 0 1.7148438,8.1074219 Z M 3.0332031,5.4296875 10.759766,11.044922 5.1113281,3.2675781 a 9.7258092,9.7258092 0 0 0 -2.078125,2.1621094 z m 2.078125,-2.1621094 5.6484379,7.7773439 h 0.002 L 7.7695312,1.8339844 A 9.7258092,9.7258092 0 0 0 5.1113281,3.2675781 Z M 1.7460938,13.976562 10.759766,11.046875 H 1.2753906 a 9.7258092,9.7258092 0 0 0 0.4707032,2.929687 z M 1.2753906,11.046875 H 10.759766 L 1.7148438,8.1074219 A 9.7258092,9.7258092 0 0 0 1.2734375,11 a 9.7258092,9.7258092 0 0 0 0.00195,0.04687 z" />
  </g>
</svg>
