<?xml version="1.0" encoding="UTF-8" standalone="no"?>
<svg
   xmlns:dc="http://purl.org/dc/elements/1.1/"
   xmlns:cc="http://creativecommons.org/ns#"
   xmlns:rdf="http://www.w3.org/1999/02/22-rdf-syntax-ns#"
   xmlns:svg="http://www.w3.org/2000/svg"
   xmlns="http://www.w3.org/2000/svg"
   xmlns:xlink="http://www.w3.org/1999/xlink"
   xmlns:sodipodi="http://sodipodi.sourceforge.net/DTD/sodipodi-0.dtd"
   xmlns:inkscape="http://www.inkscape.org/namespaces/inkscape"
   width="22"
   height="22"
   id="svg2"
   version="1.1"
   inkscape:version="1.0.1 (3bc2e813f5, 2020-09-07)"
   sodipodi:docname="tomate-25.svg"
   enable-background="new">
  <defs
     id="defs4">
    <clipPath
       clipPathUnits="userSpaceOnUse"
       id="clipPath4137">
      <path
         sodipodi:type="arc"
         style="opacity:0.6;color:#000000;fill:#393935;fill-opacity:0.6;stroke:none;stroke-width:2;marker:none;visibility:visible;display:inline;overflow:visible;enable-background:accumulate"
         id="path4139"
         sodipodi:cx="11"
         sodipodi:cy="11"
         sodipodi:rx="16"
         sodipodi:ry="16"
         d="M 27,11 A 16,16 0 0 1 11.012741,26.999995 L 11,11 z"
         transform="matrix(0,-1,1,0,-24.999975,49.043203)"
         sodipodi:start="0"
         sodipodi:end="1.57"
         inkscape:transform-center-x="-2.472136"
         inkscape:transform-center-y="-8" />
    </clipPath>
  </defs>
  <sodipodi:namedview
     id="base"
     pagecolor="#ffffff"
     bordercolor="#666666"
     borderopacity="1.0"
     inkscape:pageopacity="0.0"
     inkscape:pageshadow="2"
     inkscape:zoom="16.350719"
     inkscape:cx="1.6511214"
     inkscape:cy="10.560417"
     inkscape:document-units="px"
     inkscape:current-layer="layer2"
     showgrid="true"
     fit-margin-top="0"
     fit-margin-left="0"
     fit-margin-right="0"
     fit-margin-bottom="0"
     inkscape:window-width="1920"
     inkscape:window-height="1044"
     inkscape:window-x="0"
     inkscape:window-y="36"
     inkscape:window-maximized="1"
     inkscape:snap-global="false"
     inkscape:document-rotation="0">
    <inkscape:grid
       type="xygrid"
       id="grid2996"
       empspacing="4"
       visible="true"
       enabled="true"
       snapvisiblegridlinesonly="true" />
  </sodipodi:namedview>
  <metadata
     id="metadata7">
    <rdf:RDF>
      <cc:Work
         rdf:about="">
        <dc:format>image/svg+xml</dc:format>
        <dc:type
           rdf:resource="http://purl.org/dc/dcmitype/StillImage" />
        <dc:title />
      </cc:Work>
    </rdf:RDF>
  </metadata>
  <g
     inkscape:groupmode="layer"
     id="layer2"
     inkscape:label="Tomate"
     style="display:inline;"
     transform="translate(0,-26)">
    <path
       style="opacity:0.3;fill-opacity:1"
       d="M 14.03125 2.34375 C 13.993266 2.3273844 13.831749 2.4062903 13.65625 2.46875 C 13.430676 3.2086184 13.160738 4.1361133 13 4.6875 C 13.088898 4.686705 13.186717 4.686679 13.28125 4.6875 C 13.556467 3.7131009 13.857663 2.6044977 14 2.40625 C 14.02396 2.37291 14.04684 2.35052 14.03125 2.34375 z M 7.3125 2.96875 C 7.1628025 3.3009957 7.2070352 3.6723744 7.34375 4.03125 C 7.6244545 4.1391233 7.9252553 4.2269894 8.1875 4.3125 C 7.8220763 3.9098966 7.4668807 3.4458473 7.3125 2.96875 z M 5.03125 3.375 C 5.0967224 3.9793149 5.2617046 4.506727 5.5 4.9375 C 5.6778925 4.8687864 5.8463244 4.7730663 6.03125 4.71875 C 5.8172219 4.4765725 5.6386804 4.201081 5.46875 3.875 C 5.3123443 3.7308479 5.1854807 3.5534132 5.03125 3.375 z M 18.46875 3.6875 C 18.387904 3.9014283 18.252272 4.0681836 18.0625 4.28125 C 17.535524 4.872908 16.697988 5.210944 16.40625 5.3125 C 16.502688 5.352591 16.58961 5.36083 16.6875 5.40625 C 16.795113 5.456154 16.894707 5.53854 17 5.59375 C 17.236714 5.5699214 17.470237 5.554266 17.71875 5.5625 C 17.839052 5.4677404 17.959992 5.3650896 18.0625 5.25 C 18.459528 4.8042364 18.627897 4.4950969 18.46875 3.6875 z M 18.40625 6.59375 C 18.638103 6.8205512 18.842421 7.0659432 19.03125 7.34375 C 19.3582 7.3094414 19.671586 7.2626066 20 7.21875 C 19.437559 6.8705703 18.915227 6.6885479 18.40625 6.59375 z M 19.90625 11.1875 C 19.890205 11.412433 19.878121 11.634646 19.84375 11.875 C 19.204592 16.34457 17.117682 20.10956 10.9375 20.03125 C 5.331022 19.960203 2.315693 16.381077 2.03125 11.875 C 2.0287264 12.190129 2.0094648 12.49863 2.03125 12.84375 C 2.315693 17.349827 5.331022 20.928953 10.9375 21 C 17.117682 21.07831 19.204592 17.31332 19.84375 12.84375 C 19.928898 12.248317 19.928879 11.690656 19.90625 11.1875 z "
       transform="translate(0,26)"
       id="use4392" />
    <path
       style="fill-opacity:1"
       d="m -16.880562,28.654248 c -1.55792,0.800008 -0.789074,2.129334 0.05465,3.058902 -0.969688,-0.316188 -2.095869,-0.673551 -3.154494,-1.898162 0.109367,1.009465 0.539841,1.75979 1.024186,2.307837 -2.421087,0.711121 -4.301537,2.599762 -4.014816,7.141991 0.284443,4.506077 3.297121,8.095138 8.903599,8.166185 6.1801817,0.07831 8.2644336,-3.696615 8.9035917,-8.166185 0.3752953,-2.624401 -0.3726814,-4.314059 -1.5704192,-5.407703 0.5597733,-0.05585 1.1517478,-0.113389 1.7342893,-0.191182 -1.1020793,-0.682244 -2.0950501,-0.774313 -3.004281,-0.682786 -0.1052925,-0.05521 -0.2064696,-0.113968 -0.3140831,-0.163872 -0.097887,-0.04542 -0.1903338,-0.08281 -0.2867721,-0.122901 0.2917383,-0.101556 1.1390332,-0.418873 1.6660097,-1.010531 0.5060576,-0.568177 0.6838862,-0.873096 0.2184934,-2.335145 -0.060594,0.767532 -0.8087029,1.178622 -1.1744003,1.529451 -0.6591543,0.632353 -1.6600697,0.808043 -2.4580484,1.310959 -0.622608,-0.101658 -1.178229,-0.113486 -1.652354,-0.109246 0.268155,-0.919864 0.818493,-2.982613 1.010531,-3.250084 0.02396,-0.03334 0.02923,-0.04788 0.01364,-0.05465 -0.108945,-0.04694 -1.063992,0.464492 -1.256332,0.191183 -0.185439,-0.263496 -0.303773,1.931597 -0.805694,3.113529 -0.07158,-0.0025 -0.227283,-0.01971 -0.327742,-0.02733 -0.236086,-0.481925 -0.503678,-1.17322 -0.368706,-1.775256 -0.463979,0.667394 -0.627395,1.15288 -0.64182,1.570418 -1.347069,-1.072835 -3.085221,-1.969758 -2.499019,-3.195461 z"
       id="path3801"
       inkscape:connector-curvature="0" />
    <use
       style="opacity:0.4;fill:#dd0939;fill-opacity:1"
       height="22"
       width="22"
       transform="translate(24.999975,-1.3984633)"
       id="use4959"
       xlink:href="#path3801"
       y="0"
       x="0" />
    <use
       x="0"
       y="0"
       xlink:href="#path3801"
       id="use4112"
       transform="translate(24.999975,-1.3984633)"
       width="22"
       height="22"
       style="fill:#c70833;fill-opacity:1"
       clip-path="url(#clipPath4137)" />
  </g>
</svg>
